<svg xmlns="http://www.w3.org/2000/svg" width="1200" height="620" viewBox="0 0 1200 620">
  <rect width="1200" height="620" rx="28" fill="#eef4f8"/>
  <text x="70" y="82" fill="#16324f" font-family="Arial, sans-serif" font-size="38" font-weight="700">Example AG &#183; Service-Landschaft</text>
  <text x="70" y="125" fill="#53697d" font-family="Arial, sans-serif" font-size="22">Vereinfachte Architektur&#252;bersicht</text>

  <g font-family="Arial, sans-serif" text-anchor="middle">
    <rect x="70" y="225" width="250" height="150" rx="18" fill="#ffffff" stroke="#2d7dd2" stroke-width="4"/>
    <text x="195" y="288" fill="#16324f" font-size="28" font-weight="700">Benutzer</text>
    <text x="195" y="330" fill="#53697d" font-size="21">Web &amp; Mobile</text>

    <rect x="475" y="185" width="250" height="230" rx="18" fill="#16324f"/>
    <text x="600" y="278" fill="#ffffff" font-size="28" font-weight="700">Service API</text>
    <text x="600" y="320" fill="#cfe4f7" font-size="21">Authentisierung</text>
    <text x="600" y="352" fill="#cfe4f7" font-size="21">Geschäftslogik</text>

    <rect x="880" y="225" width="250" height="150" rx="18" fill="#ffffff" stroke="#2d7dd2" stroke-width="4"/>
    <text x="1005" y="288" fill="#16324f" font-size="28" font-weight="700">Daten</text>
    <text x="1005" y="330" fill="#53697d" font-size="21">SQL &amp; Object Store</text>
  </g>

  <g stroke="#2d7dd2" stroke-width="8" fill="none" stroke-linecap="round" stroke-linejoin="round">
    <path d="M 335 300 H 445"/>
    <path d="M 425 280 L 447 300 L 425 320"/>
    <path d="M 755 300 H 850"/>
    <path d="M 830 280 L 852 300 L 830 320"/>
  </g>

  <rect x="70" y="495" width="1060" height="62" rx="14" fill="#dbeaf4"/>
  <text x="600" y="535" fill="#16324f" font-family="Arial, sans-serif" font-size="22" text-anchor="middle">Monitoring &#183; Backup &#183; Security Controls</text>
</svg>
